HIERARCHY
ROOT Hips
{
	OFFSET -0.001795 -0.223333 0.028219
	CHANNELS 6 Xposition Yposition Zposition Zrotation Yrotation Xrotation 
	JOINT LeftUpLeg
	{
		OFFSET 0.069520 -0.091406 -0.006815
		CHANNELS 3 Zrotation Yrotation Xrotation
		JOINT LeftLeg
		{
			OFFSET 0.034277 -0.375199 -0.004496
			CHANNELS 3 Zrotation Yrotation Xrotation
			JOINT LeftFoot
			{
				OFFSET -0.013596 -0.397961 -0.043693
				CHANNELS 3 Zrotation Yrotation Xrotation
				JOINT LeftToe
				{
					OFFSET 0.026358 -0.055791 0.119288
					CHANNELS 3 Zrotation Yrotation Xrotation
					End Site
					{
						OFFSET 0.000000 0.000000 0.000000
					}
				}
			}
		}
	}
	JOINT RightUpLeg
	{
		OFFSET -0.067670 -0.090522 -0.004320
		CHANNELS 3 Zrotation Yrotation Xrotation
		JOINT RightLeg
		{
			OFFSET -0.038290 -0.382569 -0.008850
			CHANNELS 3 Zrotation Yrotation Xrotation
			JOINT RightFoot
			{
				OFFSET 0.015774 -0.398415 -0.042312
				CHANNELS 3 Zrotation Yrotation Xrotation
				JOINT RightToe
				{
					OFFSET -0.025372 -0.048144 0.123348
					CHANNELS 3 Zrotation Yrotation Xrotation
					End Site
					{
						OFFSET 0.000000 0.000000 0.000000
					}
				}
			}
		}
	}
	JOINT Spine
	{
		OFFSET -0.002533 0.108963 -0.026696
		CHANNELS 3 Zrotation Yrotation Xrotation
		JOINT Spine1
		{
			OFFSET 0.005487 0.135180 0.001092
			CHANNELS 3 Zrotation Yrotation Xrotation
			JOINT Spine2
			{
				OFFSET 0.001457 0.052922 0.025425
				CHANNELS 3 Zrotation Yrotation Xrotation
				JOINT Neck
				{
					OFFSET -0.002778 0.213870 -0.042857
					CHANNELS 3 Zrotation Yrotation Xrotation
					JOINT Head
					{
						OFFSET 0.005152 0.064970 0.051349
						CHANNELS 3 Zrotation Yrotation Xrotation
     JOINT LeftEye
     {
     	OFFSET 0.030000 0.020000 0.080000
     	CHANNELS 3 Zrotation Yrotation Xrotation
     	End Site
     	{
     		OFFSET 0.000000 0.000000 0.020000
     	}
     }
     JOINT RightEye
     {
     	OFFSET -0.030000 0.020000 0.080000
     	CHANNELS 3 Zrotation Yrotation Xrotation
     	End Site
     	{
     		OFFSET 0.000000 0.000000 0.020000
     	}
     }
     JOINT Jaw
     {
     	OFFSET 0.000000 -0.040000 0.020000
     	CHANNELS 3 Zrotation Yrotation Xrotation
     	End Site
     	{
     		OFFSET 0.000000 -0.030000 0.040000
     	}
     }
     }
				}
				JOINT LeftShoulder
				{
					OFFSET 0.078845 0.121749 -0.034090
					CHANNELS 3 Zrotation Yrotation Xrotation
					JOINT LeftArm
					{
						OFFSET 0.090977 0.030469 -0.008868
						CHANNELS 3 Zrotation Yrotation Xrotation
						JOINT LeftForeArm
						{
							OFFSET 0.259612 -0.012772 -0.027456
							CHANNELS 3 Zrotation Yrotation Xrotation
							JOINT LeftHand
							{
								OFFSET 0.249234 0.008986 -0.001171
								CHANNELS 3 Zrotation Yrotation Xrotation
								End Site
								{
									OFFSET 0.000000 0.000000 0.000000
								}
							}
						}
					}
				}
				JOINT RightShoulder
				{
					OFFSET -0.081759 0.118833 -0.038615
					CHANNELS 3 Zrotation Yrotation Xrotation
					JOINT RightArm
					{
						OFFSET -0.096012 0.032551 -0.009143
						CHANNELS 3 Zrotation Yrotation Xrotation
						JOINT RightForeArm
						{
							OFFSET -0.253742 -0.013329 -0.021401
							CHANNELS 3 Zrotation Yrotation Xrotation
							JOINT RightHand
							{
								OFFSET -0.255298 0.007772 -0.005559
								CHANNELS 3 Zrotation Yrotation Xrotation
								End Site
								{
									OFFSET 0.000000 0.000000 0.000000
								}
							}
						}
					}
				}
			}
		}
	}
}
MOTION
Frames: 7
Frame Time: 0.050000
0.098395 0.903359 3.211432 -179.713028 -4.422003 171.349335 3.780515 10.877417 -5.512219 17.188894 20.094303 25.095079 -152.157089 22.867950 -23.402714 0.000000 0.000000 0.000000 1.228826 4.088476 -3.427165 11.448590 14.684567 23.180538 -145.410934 56.247559 -5.603908 0.000000 0.000000 0.000000 -4.408559 2.010510 7.875408 3.068536 12.800368 -5.452663 -7.558568 -5.776964 11.200144 62.914967 41.391380 27.665741 0.000000 0.000000 0.000000 -3.076341 19.968199 74.391098 -8.524634 -74.801941 18.245209 24.573507 -7.972902 -2.704903 0.000000 0.000000 0.000000 -18.514521 2.163932 -129.829483 -99.215744 -42.826748 51.596806 31.909168 -22.619612 -15.551311 0.000000 0.000000 0.000000 -9.523809 -5.714286 -11.428572 -9.523809 5.714286 -11.428572 1.389209 0.712312 7.123121
0.098720 0.896920 3.211601 -179.983948 -5.656261 170.875488 3.811658 11.036196 -6.136293 20.446001 22.662556 29.043730 -157.899445 25.323689 -22.550943 0.000000 0.000000 0.000000 0.246202 4.442561 -3.913576 14.318820 15.996350 25.355675 -140.467041 57.940704 1.132371 0.000000 0.000000 0.000000 -3.809649 1.719690 7.940892 2.786174 12.466453 -5.608274 -7.406298 -4.896252 10.782090 64.378151 39.905560 28.507601 0.000000 0.000000 0.000000 -4.216652 18.363226 69.080406 -22.113115 -71.389168 26.294132 23.502827 -12.573252 -3.425572 0.000000 0.000000 0.000000 -16.387753 3.913844 -122.337975 -96.109695 -50.630005 57.140968 34.740463 -17.989281 -14.674488 0.000000 0.000000 0.000000 0.000000 0.000000 0.000000 0.000000 0.000000 0.000000 1.570132 0.865708 8.657084
0.098690 0.889858 3.211066 179.635757 -7.128704 170.386536 3.735926 11.195530 -7.061772 24.784376 25.054325 33.589764 -160.239075 28.967205 -20.458727 0.000000 0.000000 0.000000 -1.002179 4.898837 -4.452291 17.935749 17.353703 27.538668 -128.949677 57.377369 12.739376 0.000000 0.000000 0.000000 -3.306710 1.484199 8.054754 2.701058 12.364040 -5.503269 -7.057375 -4.681417 10.096453 62.841118 38.164707 27.306759 0.000000 0.000000 0.000000 -5.798377 16.603685 63.875202 -31.428171 -66.932350 29.300077 22.548870 -17.110506 -4.112496 0.000000 0.000000 0.000000 -14.331635 6.469375 -112.025345 -90.985825 -61.102425 61.441944 36.991520 -12.879296 -13.339296 0.000000 0.000000 0.000000 -14.814815 -8.888889 -17.777779 -14.814815 8.888889 -17.777779 1.601733 0.951166 9.511659
0.098888 0.882703 3.209668 179.541321 -8.650274 169.785202 4.023531 11.780690 -7.969239 30.453484 27.491886 39.218407 -164.789001 34.936073 -19.513300 0.000000 0.000000 0.000000 -1.814120 5.181329 -4.798131 21.671490 18.651859 29.730095 -119.780968 56.975121 23.041212 0.000000 0.000000 0.000000 -2.890048 1.268498 8.000703 3.118928 11.884717 -5.779965 -6.964738 -4.455655 10.096187 63.996792 36.904587 27.906204 0.000000 0.000000 0.000000 -6.780090 15.584116 60.549778 -35.968700 -63.388042 29.552931 21.140490 -20.241211 -4.391747 0.000000 0.000000 0.000000 -12.679259 8.090153 -105.653564 -84.146805 -67.844650 61.037342 38.038113 -9.025707 -12.184608 0.000000 0.000000 0.000000 -15.873015 -9.523809 -19.047619 -15.873015 9.523809 -19.047619 1.497420 0.958414 9.584138
0.099543 0.876581 3.207372 179.526047 -9.981902 169.233994 4.399656 12.405493 -8.657326 34.903469 28.798529 43.430962 -160.722855 37.824146 -14.119286 0.000000 0.000000 0.000000 -2.398375 5.497271 -4.486943 24.096663 19.188354 30.663361 -111.280167 52.289471 31.029587 0.000000 0.000000 0.000000 -2.460172 1.076253 7.989324 3.368819 11.981581 -5.385063 -6.665542 -4.581887 9.671416 63.944866 35.442902 27.441225 0.000000 0.000000 0.000000 -7.555158 13.727118 57.733913 -38.741211 -59.926620 28.235821 20.103827 -22.390064 -4.574332 0.000000 0.000000 0.000000 -10.632726 10.172134 -97.181229 -68.101372 -75.819695 52.531799 37.903244 -4.207036 -10.282134 0.000000 0.000000 0.000000 0.000000 0.000000 0.000000 0.000000 0.000000 0.000000 1.275021 0.879211 8.792107
0.100289 0.871072 3.204573 179.662628 -11.505351 169.161423 4.826689 13.322062 -9.878760 40.442474 29.568205 48.183064 -155.991333 41.276802 -7.634730 0.000000 0.000000 0.000000 -2.961418 5.645441 -4.733634 27.160421 19.972527 31.914181 -105.699387 50.590359 38.054855 0.000000 0.000000 0.000000 -2.199207 0.784956 7.097696 4.206148 12.299261 -4.556875 -6.972083 -4.931651 8.905125 62.964138 33.480522 26.940189 0.000000 0.000000 0.000000 -8.093833 12.401629 53.729446 -41.549664 -55.585678 27.299820 18.113571 -24.937574 -4.386689 0.000000 0.000000 0.000000 -8.318531 11.225986 -91.182152 -42.115742 -79.499260 32.371067 37.246105 -0.272874 -8.712097 0.000000 0.000000 0.000000 -14.814815 -8.888889 -17.777779 -14.814815 8.888889 -17.777779 0.958451 0.710769 7.107687
0.100678 0.866994 3.201530 179.627136 -12.396664 168.943939 4.893206 13.452264 -10.228057 44.077084 30.034615 51.294834 -150.966919 41.548431 -1.907487 0.000000 0.000000 0.000000 -3.318175 5.867573 -4.487587 28.087292 20.030388 32.402714 -102.270294 45.591167 40.763973 0.000000 0.000000 0.000000 -1.875874 0.595831 6.610950 4.092761 12.208903 -4.320312 -6.327120 -4.199665 8.450516 62.891712 31.770424 26.884207 0.000000 0.000000 0.000000 -8.563901 10.723781 51.253639 -42.579990 -51.902027 24.997316 16.831732 -27.105881 -4.314246 0.000000 0.000000 0.000000 -6.424683 12.000766 -84.851585 -6.384689 -79.924393 1.501977 36.865807 2.771352 -7.600995 0.000000 0.000000 0.000000 -15.873015 -9.523809 -19.047619 -15.873015 9.523809 -19.047619 0.579481 0.460541 4.605414
